<svg width="200" height="200" viewBox="0 0 200 200" fill="none" xmlns="http://www.w3.org/2000/svg">
  <path
    d="M75.8564 109.88C81.4717 106.869 86.8021 103.125 91.8477 98.6494C96.9746 94.0921 101.451 89.2907 105.275 84.2451C109.1 79.1182 112.111 74.0319 114.309 68.9863C116.587 63.8594 117.727 59.18 117.727 54.9482C117.727 50.391 116.465 46.6882 113.942 43.8398C111.42 40.9915 107.269 39.5674 101.491 39.5674C98.236 39.5674 95.5505 39.9743 93.4346 40.7881C91.3187 41.5205 89.6097 42.4971 88.3076 43.7178C87.0869 44.9385 86.2324 46.2812 85.7441 47.7461C85.2559 49.2109 85.0117 50.6351 85.0117 52.0186C85.0117 53.8903 85.2965 55.5993 85.8662 57.1455C86.4359 58.6917 86.7207 59.709 86.7207 60.1973C86.7207 60.8483 86.151 61.2959 85.0117 61.54C83.8724 61.7842 82.0007 62.1097 79.3965 62.5166C76.8737 62.9235 73.4964 63.5339 69.2646 64.3477C65.0329 65.0801 59.8245 66.3008 53.6396 68.0098C51.2796 68.6608 49.4486 69.1084 48.1465 69.3525C46.8444 69.5967 45.8271 69.7188 45.0947 69.7188C44.1995 69.7188 43.4264 69.1084 42.7754 67.8877C42.2057 66.667 41.7581 65.2428 41.4326 63.6152C41.1071 61.9062 40.863 60.1566 40.7002 58.3662C40.6188 56.5758 40.5781 55.111 40.5781 53.9717C40.5781 46.4847 42.4092 39.8115 46.0713 33.9521C49.8148 28.0114 54.6569 23.0065 60.5977 18.9375C66.5384 14.8685 73.2116 11.776 80.6172 9.66016C88.1042 7.46289 95.5911 6.36426 103.078 6.36426C112.762 6.36426 121.511 7.86979 129.323 10.8809C137.217 13.8105 143.931 17.6354 149.465 22.3555C155.08 26.9941 159.393 32.2432 162.404 38.1025C165.415 43.8805 166.921 49.5771 166.921 55.1924C166.921 59.8311 166.107 64.429 164.479 68.9863C162.933 73.4622 160.777 77.8568 158.01 82.1699C155.324 86.4831 152.15 90.6742 148.488 94.7432C144.908 98.8122 141.123 102.718 137.136 106.462C133.148 110.205 129.079 113.786 124.929 117.204C120.86 120.622 116.913 123.837 113.088 126.848C112.925 127.092 112.6 127.336 112.111 127.58C111.704 127.824 111.257 127.946 110.769 127.946C110.524 127.946 110.199 127.906 109.792 127.824C109.466 127.743 109.222 127.621 109.06 127.458C105.967 125.993 103.16 124.691 100.637 123.552C98.1953 122.412 95.7946 121.354 93.4346 120.378C91.0745 119.401 88.6331 118.547 86.1104 117.814C83.6689 117.001 80.9427 116.268 77.9316 115.617C76.7923 115.373 75.9378 115.007 75.3682 114.519C74.8799 113.949 74.6357 113.379 74.6357 112.81C75.2868 112.403 75.653 111.914 75.7344 111.345C75.8158 110.694 75.8564 110.205 75.8564 109.88ZM76.3447 187.639C76.5075 183.814 76.6296 180.803 76.7109 178.605C76.7923 176.327 76.833 174.577 76.833 173.356C76.9144 172.136 76.9551 171.281 76.9551 170.793C76.9551 170.305 76.9551 169.857 76.9551 169.45C76.9551 168.962 76.9551 168.392 76.9551 167.741C77.0365 167.09 77.1178 166.032 77.1992 164.567C77.2806 163.021 77.4027 160.946 77.5654 158.342C77.7282 155.656 77.9316 152.116 78.1758 147.722C78.3385 145.036 78.5827 143.205 78.9082 142.229C79.3151 141.171 80.251 140.52 81.7158 140.275C88.8773 140.275 96.3643 140.275 104.177 140.275C111.989 140.194 119.354 140.113 126.271 140.031C127.167 140.031 127.818 140.316 128.225 140.886C128.632 141.374 128.835 142.31 128.835 143.693L125.417 181.291C125.091 183.977 124.766 185.808 124.44 186.784C124.196 187.842 123.301 188.452 121.755 188.615C114.838 188.697 107.717 188.778 100.393 188.859C93.1497 188.941 85.5814 188.981 77.6875 188.981C77.0365 188.981 76.6296 188.9 76.4668 188.737C76.3854 188.656 76.3447 188.29 76.3447 187.639Z"
    fill="#87872B" />
  <path
    d="M72.8564 109.88C78.4717 106.869 83.8021 103.125 88.8477 98.6494C93.9746 94.0921 98.4505 89.2907 102.275 84.2451C106.1 79.1182 109.111 74.0319 111.309 68.9863C113.587 63.8594 114.727 59.18 114.727 54.9482C114.727 50.391 113.465 46.6882 110.942 43.8398C108.42 40.9915 104.269 39.5674 98.4912 39.5674C95.236 39.5674 92.5505 39.9743 90.4346 40.7881C88.3187 41.5205 86.6097 42.4971 85.3076 43.7178C84.0869 44.9385 83.2324 46.2812 82.7441 47.7461C82.2559 49.2109 82.0117 50.6351 82.0117 52.0186C82.0117 53.8903 82.2965 55.5993 82.8662 57.1455C83.4359 58.6917 83.7207 59.709 83.7207 60.1973C83.7207 60.8483 83.151 61.2959 82.0117 61.54C80.8724 61.7842 79.0007 62.1097 76.3965 62.5166C73.8737 62.9235 70.4964 63.5339 66.2646 64.3477C62.0329 65.0801 56.8245 66.3008 50.6396 68.0098C48.2796 68.6608 46.4486 69.1084 45.1465 69.3525C43.8444 69.5967 42.8271 69.7188 42.0947 69.7188C41.1995 69.7188 40.4264 69.1084 39.7754 67.8877C39.2057 66.667 38.7581 65.2428 38.4326 63.6152C38.1071 61.9062 37.863 60.1566 37.7002 58.3662C37.6188 56.5758 37.5781 55.111 37.5781 53.9717C37.5781 46.4847 39.4092 39.8115 43.0713 33.9521C46.8148 28.0114 51.6569 23.0065 57.5977 18.9375C63.5384 14.8685 70.2116 11.776 77.6172 9.66016C85.1042 7.46289 92.5911 6.36426 100.078 6.36426C109.762 6.36426 118.511 7.86979 126.323 10.8809C134.217 13.8105 140.931 17.6354 146.465 22.3555C152.08 26.9941 156.393 32.2432 159.404 38.1025C162.415 43.8805 163.921 49.5771 163.921 55.1924C163.921 59.8311 163.107 64.429 161.479 68.9863C159.933 73.4622 157.777 77.8568 155.01 82.1699C152.324 86.4831 149.15 90.6742 145.488 94.7432C141.908 98.8122 138.123 102.718 134.136 106.462C130.148 110.205 126.079 113.786 121.929 117.204C117.86 120.622 113.913 123.837 110.088 126.848C109.925 127.092 109.6 127.336 109.111 127.58C108.704 127.824 108.257 127.946 107.769 127.946C107.524 127.946 107.199 127.906 106.792 127.824C106.466 127.743 106.222 127.621 106.06 127.458C102.967 125.993 100.16 124.691 97.6367 123.552C95.1953 122.412 92.7946 121.354 90.4346 120.378C88.0745 119.401 85.6331 118.547 83.1104 117.814C80.6689 117.001 77.9427 116.268 74.9316 115.617C73.7923 115.373 72.9378 115.007 72.3682 114.519C71.8799 113.949 71.6357 113.379 71.6357 112.81C72.2868 112.403 72.653 111.914 72.7344 111.345C72.8158 110.694 72.8564 110.205 72.8564 109.88ZM73.3447 187.639C73.5075 183.814 73.6296 180.803 73.7109 178.605C73.7923 176.327 73.833 174.577 73.833 173.356C73.9144 172.136 73.9551 171.281 73.9551 170.793C73.9551 170.305 73.9551 169.857 73.9551 169.45C73.9551 168.962 73.9551 168.392 73.9551 167.741C74.0365 167.09 74.1178 166.032 74.1992 164.567C74.2806 163.021 74.4027 160.946 74.5654 158.342C74.7282 155.656 74.9316 152.116 75.1758 147.722C75.3385 145.036 75.5827 143.205 75.9082 142.229C76.3151 141.171 77.251 140.52 78.7158 140.275C85.8773 140.275 93.3643 140.275 101.177 140.275C108.989 140.194 116.354 140.113 123.271 140.031C124.167 140.031 124.818 140.316 125.225 140.886C125.632 141.374 125.835 142.31 125.835 143.693L122.417 181.291C122.091 183.977 121.766 185.808 121.44 186.784C121.196 187.842 120.301 188.452 118.755 188.615C111.838 188.697 104.717 188.778 97.3926 188.859C90.1497 188.941 82.5814 188.981 74.6875 188.981C74.0365 188.981 73.6296 188.9 73.4668 188.737C73.3854 188.656 73.3447 188.29 73.3447 187.639Z"
    fill="#CEB629" />
</svg>